<?xml version="1.0" standalone="no"?>
<!DOCTYPE svg PUBLIC "-//W3C//DTD SVG 20010904//EN"
 "http://www.w3.org/TR/2001/REC-SVG-20010904/DTD/svg10.dtd">
<svg version="1.0" xmlns="http://www.w3.org/2000/svg"
 width="200.000000pt" height="175.000000pt" viewBox="0 0 200.000000 175.000000"
 preserveAspectRatio="xMidYMid meet">

<g transform="translate(0.000000,175.000000) scale(0.100000,-0.100000)"
fill="#000000" stroke="none">
<path d="M54 1670 c6 -79 25 -136 66 -194 61 -89 151 -141 335 -196 145 -42
198 -65 271 -116 73 -51 126 -114 162 -191 23 -50 26 -71 26 -153 0 -79 -4
-103 -24 -145 -61 -126 -196 -208 -345 -209 -71 -1 -88 3 -145 31 -83 41 -142
100 -183 182 -29 60 -32 73 -31 156 1 74 5 100 26 146 32 71 88 133 152 169
l49 28 -44 12 c-24 7 -72 25 -106 40 l-62 28 -49 -51 c-156 -166 -191 -403
-92 -615 40 -85 160 -207 245 -247 35 -17 89 -56 130 -95 132 -126 262 -195
422 -226 251 -48 514 33 703 218 42 40 98 82 142 105 90 47 191 145 234 228
97 185 81 410 -40 579 -24 33 -55 72 -69 85 l-26 24 -33 -20 c-28 -16 -103
-45 -157 -59 -7 -2 14 -22 47 -44 65 -43 121 -116 147 -189 18 -52 20 -167 3
-225 -28 -98 -109 -189 -208 -235 -45 -21 -70 -25 -140 -25 -76 0 -93 4 -160
36 -135 64 -188 135 -214 289 -17 97 42 237 137 325 80 75 154 114 291 154
311 89 409 181 441 414 l7 50 -51 -56 c-82 -89 -138 -110 -416 -149 -118 -17
-142 -16 -255 4 -58 11 -145 18 -227 18 -140 0 -181 -3 -306 -27 -59 -12 -90
-13 -130 -5 -28 5 -77 13 -107 16 -217 24 -343 77 -402 170 l-20 30 6 -65z
m1009 -1214 c34 -35 73 -70 85 -79 l24 -15 -54 -64 c-29 -35 -67 -82 -84 -104
l-31 -39 -29 34 c-60 72 -134 166 -134 172 0 3 24 25 53 48 28 23 63 58 77 76
14 19 26 35 28 35 2 0 31 -29 65 -64z"/>
<path d="M491 953 c-45 -22 -71 -67 -71 -124 0 -80 65 -136 147 -126 126 14
159 181 50 247 -39 24 -81 25 -126 3z"/>
<path d="M1391 952 c-41 -22 -71 -73 -71 -120 0 -140 196 -182 252 -54 23 51
19 96 -13 136 -44 56 -108 70 -168 38z"/>
</g>
</svg>
